  0
SECTION
  2
HEADER
  9
$ACADVER
  1
AC1009
  9
$INSBASE
 10
0.0
 20
0.0
 30
0.0
  9
$EXTMIN
 10
-0.0000000000002345
 20
0.0
 30
-11.0
  9
$EXTMAX
 10
864.0
 20
486.0
 30
0.0
  9
$LIMMIN
 10
0.0
 20
0.0
  9
$LIMMAX
 10
12.0
 20
9.0
  9
$ORTHOMODE
 70
     0
  9
$REGENMODE
 70
     1
  9
$FILLMODE
 70
     1
  9
$QTEXTMODE
 70
     0
  9
$MIRRTEXT
 70
     0
  9
$DRAGMODE
 70
     2
  9
$LTSCALE
 40
1.0
  9
$OSMODE
 70
    37
  9
$ATTMODE
 70
     1
  9
$TEXTSIZE
 40
0.2
  9
$TRACEWID
 40
0.05
  9
$TEXTSTYLE
  7
STANDARD
  9
$CLAYER
  8
0
  9
$CELTYPE
  6
BYLAYER
  9
$CECOLOR
 62
   256
  9
$DIMSCALE
 40
1.0
  9
$DIMASZ
 40
0.18
  9
$DIMEXO
 40
0.0625
  9
$DIMDLI
 40
0.38
  9
$DIMRND
 40
0.0
  9
$DIMDLE
 40
0.0
  9
$DIMEXE
 40
0.18
  9
$DIMTP
 40
0.0
  9
$DIMTM
 40
0.0
  9
$DIMTXT
 40
0.18
  9
$DIMCEN
 40
0.09
  9
$DIMTSZ
 40
0.0
  9
$DIMTOL
 70
     0
  9
$DIMLIM
 70
     0
  9
$DIMTIH
 70
     1
  9
$DIMTOH
 70
     1
  9
$DIMSE1
 70
     0
  9
$DIMSE2
 70
     0
  9
$DIMTAD
 70
     0
  9
$DIMZIN
 70
     0
  9
$DIMBLK
  1

  9
$DIMASO
 70
     1
  9
$DIMSHO
 70
     1
  9
$DIMPOST
  1

  9
$DIMAPOST
  1

  9
$DIMALT
 70
     0
  9
$DIMALTD
 70
     2
  9
$DIMALTF
 40
25.3999999999999986
  9
$DIMLFAC
 40
1.0
  9
$DIMTOFL
 70
     0
  9
$DIMTVP
 40
0.0
  9
$DIMTIX
 70
     0
  9
$DIMSOXD
 70
     0
  9
$DIMSAH
 70
     0
  9
$DIMBLK1
  1

  9
$DIMBLK2
  1

  9
$DIMSTYLE
  2
STANDARD
  9
$DIMCLRD
 70
     0
  9
$DIMCLRE
 70
     0
  9
$DIMCLRT
 70
     0
  9
$DIMTFAC
 40
1.0
  9
$DIMGAP
 40
0.09
  9
$LUNITS
 70
     2
  9
$LUPREC
 70
     4
  9
$SKETCHINC
 40
0.1
  9
$FILLETRAD
 40
3.0
  9
$AUNITS
 70
     0
  9
$AUPREC
 70
     0
  9
$MENU
  1
.
  9
$ELEVATION
 40
0.0
  9
$PELEVATION
 40
0.0
  9
$THICKNESS
 40
0.0
  9
$LIMCHECK
 70
     0
  9
$BLIPMODE
 70
     0
  9
$CHAMFERA
 40
0.0
  9
$CHAMFERB
 40
0.0
  9
$SKPOLY
 70
     0
  9
$TDCREATE
 40
2459063.5965277780778706
  9
$TDUPDATE
 40
2459063.7008101851679385
  9
$TDINDWG
 40
0.1042824074
  9
$TDUSRTIMER
 40
0.1042824074
  9
$USRTIMER
 70
     1
  9
$ANGBASE
 50
0.0
  9
$ANGDIR
 70
     0
  9
$PDMODE
 70
     0
  9
$PDSIZE
 40
0.0
  9
$PLINEWID
 40
0.0
  9
$COORDS
 70
     1
  9
$SPLFRAME
 70
     0
  9
$SPLINETYPE
 70
     6
  9
$SPLINESEGS
 70
     8
  9
$ATTDIA
 70
     1
  9
$ATTREQ
 70
     1
  9
$HANDLING
 70
     1
  9
$HANDSEED
  5
521
  9
$SURFTAB1
 70
     6
  9
$SURFTAB2
 70
     6
  9
$SURFTYPE
 70
     6
  9
$SURFU
 70
     6
  9
$SURFV
 70
     6
  9
$UCSNAME
  2

  9
$UCSORG
 10
0.0
 20
0.0
 30
0.0
  9
$UCSXDIR
 10
1.0
 20
0.0
 30
0.0
  9
$UCSYDIR
 10
0.0
 20
1.0
 30
0.0
  9
$PUCSNAME
  2

  9
$PUCSORG
 10
0.0
 20
0.0
 30
0.0
  9
$PUCSXDIR
 10
1.0
 20
0.0
 30
0.0
  9
$PUCSYDIR
 10
0.0
 20
1.0
 30
0.0
  9
$USERI1
 70
     0
  9
$USERI2
 70
     0
  9
$USERI3
 70
     0
  9
$USERI4
 70
     0
  9
$USERI5
 70
     0
  9
$USERR1
 40
0.0
  9
$USERR2
 40
0.0
  9
$USERR3
 40
0.0
  9
$USERR4
 40
0.0
  9
$USERR5
 40
0.0
  9
$WORLDVIEW
 70
     1
  9
$SHADEDGE
 70
     3
  9
$SHADEDIF
 70
    70
  9
$TILEMODE
 70
     1
  9
$MAXACTVP
 70
    64
  9
$PLIMCHECK
 70
     0
  9
$PEXTMIN
 10
0.0
 20
0.0
 30
0.0
  9
$PEXTMAX
 10
0.0
 20
0.0
 30
0.0
  9
$PLIMMIN
 10
0.0
 20
0.0
  9
$PLIMMAX
 10
12.0
 20
9.0
  9
$UNITMODE
 70
     0
  9
$VISRETAIN
 70
     1
  9
$PLINEGEN
 70
     0
  9
$PSLTSCALE
 70
     1
  0
ENDSEC
  0
SECTION
  2
TABLES
  0
TABLE
  2
VPORT
 70
     1
  0
VPORT
  2
*ACTIVE
 70
     0
 10
0.0
 20
0.0
 11
1.0
 21
1.0
 12
0.0
 22
0.0
 13
0.0
 23
0.0
 14
0.5
 24
0.5
 15
0.5
 25
0.5
 16
-188.9850680283699091
 26
-522.5330320432731241
 36
284.792083265643214
 17
225.3118686197892941
 27
626.0639901175527484
 37
-234.3862259274104076
 40
209.6854939135951952
 41
2.2927120669056151
 42
50.0
 43
0.0
 44
0.0
 50
0.0
 51
0.0000000000000008
 71
     0
 72
  1000
 73
     1
 74
     3
 75
     0
 76
     1
 77
     0
 78
     0
  0
ENDTAB
  0
TABLE
  2
LTYPE
 70
     2
  0
LTYPE
  2
CONTINUOUS
 70
     0
  3
Solid line
 72
    65
 73
     0
 40
0.0
  0
ENDTAB
  0
TABLE
  2
LAYER
 70
     9
  0
LAYER
  2
0
 70
     0
 62
    -7
  6
CONTINUOUS
  0
LAYER
  2
ãƒ\U+FF6Cã‚_ãƒ_ãƒ\U+FF7C_1
 70
     0
 62
     7
  6
CONTINUOUS
  0
LAYER
  2
WINDOW
 70
     0
 62
     7
  6
CONTINUOUS
  0
LAYER
  2
TOP
 70
     0
 62
     7
  6
CONTINUOUS
  0
LAYER
  2
LEFTPANEL
 70
     0
 62
     7
  6
CONTINUOUS
  0
LAYER
  2
RIGHTPANEL
 70
     0
 62
     7
  6
CONTINUOUS
  0
LAYER
  2
LEFTPANELTOP
 70
     0
 62
     7
  6
CONTINUOUS
  0
LAYER
  2
RIGHTPANELTOP
 70
     0
 62
     7
  6
CONTINUOUS
  0
LAYER
  2
TABHEADER
 70
     0
 62
     7
  6
CONTINUOUS
  0
ENDTAB
  0
TABLE
  2
STYLE
 70
     2
  0
STYLE
  2
STANDARD
 70
     0
 40
0.0
 41
1.0
 50
0.0
 71
     0
 42
0.2
  3
txt
  4

  0
STYLE
  2
ANNOTATIVE
 70
     0
 40
0.0
 41
1.0
 50
0.0
 71
     0
 42
0.2
  3
txt
  4

  0
ENDTAB
  0
TABLE
  2
VIEW
 70
     0
  0
ENDTAB
  0
TABLE
  2
UCS
 70
     0
  0
ENDTAB
  0
TABLE
  2
APPID
 70
    10
  0
APPID
  2
ACAD
 70
     0
  0
APPID
  2
ACADANNOPO
 70
     0
  0
APPID
  2
ACADANNOTATIVE
 70
     0
  0
APPID
  2
ACAD_DSTYLE_DIMJAG
 70
     0
  0
APPID
  2
ACAD_DSTYLE_DIMTALN
 70
     0
  0
APPID
  2
ACAD_MLEADERVER
 70
     0
  0
APPID
  2
ACAD_NAV_VCDISPLAY
 70
     0
  0
APPID
  2
ACAD_EXEMPT_FROM_CAD_STANDARDS
 70
     0
  0
APPID
  2
ACAECLAYERSTANDARD
 70
     0
  0
APPID
  2
ACCMTRANSPARENCY
 70
     0
  0
ENDTAB
  0
TABLE
  2
DIMSTYLE
 70
     3
  0
DIMSTYLE
  2
STANDARD
 70
     0
  3

  4

  5

  6

  7

 40
1.0
 41
0.18
 42
0.0625
 43
0.38
 44
0.18
 45
0.0
 46
0.0
 47
0.0
 48
0.0
140
0.18
141
0.09
142
0.0
143
25.3999999999999986
144
1.0
145
0.0
146
1.0
147
0.09
 71
     0
 72
     0
 73
     1
 74
     1
 75
     0
 76
     0
 77
     0
 78
     0
170
     0
171
     2
172
     0
173
     0
174
     0
175
     0
176
     0
177
     0
178
     0
  0
DIMSTYLE
  2
ANNOTATIVE
 70
     0
  3

  4

  5

  6

  7

 40
0.0
 41
0.18
 42
0.0625
 43
0.38
 44
0.18
 45
0.0
 46
0.0
 47
0.0
 48
0.0
140
0.18
141
0.09
142
0.0
143
25.3999999999999986
144
1.0
145
0.0
146
1.0
147
0.09
 71
     0
 72
     0
 73
     1
 74
     1
 75
     0
 76
     0
 77
     0
 78
     0
170
     0
171
     2
172
     0
173
     0
174
     0
175
     0
176
     0
177
     0
178
     0
  0
ENDTAB
  0
ENDSEC
  0
SECTION
  2
BLOCKS
  0
BLOCK
  8
0
  2
$MODEL_SPACE
 70
     0
 10
0.0
 20
0.0
 30
0.0
  3
$MODEL_SPACE
  1

  0
ENDBLK
  5
21
  8
0
  0
BLOCK
 67
     1
  8
0
  2
$PAPER_SPACE
 70
     0
 10
0.0
 20
0.0
 30
0.0
  3
$PAPER_SPACE
  1

  0
ENDBLK
  5
5B
 67
     1
  8
0
  0
BLOCK
  8
0
  2
A$C0B7E3D83
 70
     0
 10
0.0
 20
0.0
 30
0.0
  3
A$C0B7E3D83
  1

  0
LINE
  5
21D
  8
ãƒ\U+FF6Cã‚_ãƒ_ãƒ\U+FF7C_1
 10
-0.0000000503999427
 20
8.5141700882315892
 30
0.0
 11
-0.0000000503999427
 21
0.0000000882315887
 31
0.0
  0
LINE
  5
21E
  8
ãƒ\U+FF6Cã‚_ãƒ_ãƒ\U+FF7C_1
 10
-0.0000000503999427
 20
0.0000000882315887
 30
0.0
 11
63.913999949600047
 21
0.0000000882315887
 31
0.0
  0
LINE
  5
21F
  8
ãƒ\U+FF6Cã‚_ãƒ_ãƒ\U+FF7C_1
 10
63.913999949600047
 20
0.0000000882315887
 30
0.0
 11
63.913999949600047
 21
8.4666100882315884
 31
0.0
  0
ENDBLK
  5
221
  8
0
  0
BLOCK
  8
0
  2
*U3
 70
     1
 10
0.0
 20
0.0
 30
0.0
  3
*U3
  1

  0
LINE
  5
417
  8
TOP
 10
0.0
 20
388.0
 30
-6.0
 11
0.0
 21
486.0
 31
-6.0
210
-1.0
220
0.0
230
0.0
  0
LINE
  5
418
  8
TOP
 10
0.0
 20
486.0
 30
-6.0
 11
0.0
 21
486.0
 31
-11.0
210
-1.0
220
0.0
230
0.0
  0
LINE
  5
419
  8
TOP
 10
0.0
 20
388.0
 30
-11.0
 11
0.0
 21
486.0
 31
-11.0
210
-1.0
220
0.0
230
0.0
  0
LINE
  5
41A
  8
TOP
 10
0.0
 20
388.0
 30
-6.0
 11
0.0
 21
388.0
 31
-11.0
210
-1.0
220
0.0
230
0.0
  0
LINE
  5
41B
  8
TOP
 10
864.0
 20
388.0
 30
-6.0
 11
0.0
 21
388.0
 31
-6.0
210
0.0
220
-1.0
230
0.0
  0
LINE
  5
41C
  8
TOP
 10
0.0
 20
388.0
 30
-6.0
 11
0.0
 21
388.0
 31
-11.0
210
0.0
220
-1.0
230
0.0
  0
LINE
  5
41D
  8
TOP
 10
864.0
 20
388.0
 30
-11.0
 11
0.0
 21
388.0
 31
-11.0
210
0.0
220
-1.0
230
0.0
  0
LINE
  5
41E
  8
TOP
 10
864.0
 20
388.0
 30
-6.0
 11
864.0
 21
388.0
 31
-11.0
210
0.0
220
-1.0
230
0.0
  0
LINE
  5
41F
  8
TOP
 10
864.0
 20
486.0
 30
-6.0
 11
864.0
 21
388.0
 31
-6.0
210
1.0
220
0.0
230
0.0
  0
LINE
  5
420
  8
TOP
 10
864.0
 20
388.0
 30
-6.0
 11
864.0
 21
388.0
 31
-11.0
210
1.0
220
0.0
230
0.0
  0
LINE
  5
421
  8
TOP
 10
864.0
 20
486.0
 30
-11.0
 11
864.0
 21
388.0
 31
-11.0
210
1.0
220
0.0
230
0.0
  0
LINE
  5
422
  8
TOP
 10
864.0
 20
486.0
 30
-6.0
 11
864.0
 21
486.0
 31
-11.0
210
1.0
220
0.0
230
0.0
  0
LINE
  5
423
  8
TOP
 10
0.0
 20
486.0
 30
-6.0
 11
864.0
 21
486.0
 31
-6.0
210
0.0
220
1.0
230
0.0
  0
LINE
  5
424
  8
TOP
 10
864.0
 20
486.0
 30
-6.0
 11
864.0
 21
486.0
 31
-11.0
210
0.0
220
1.0
230
0.0
  0
LINE
  5
425
  8
TOP
 10
0.0
 20
486.0
 30
-11.0
 11
864.0
 21
486.0
 31
-11.0
210
0.0
220
1.0
230
0.0
  0
LINE
  5
426
  8
TOP
 10
0.0
 20
486.0
 30
-6.0
 11
0.0
 21
486.0
 31
-11.0
210
0.0
220
1.0
230
0.0
  0
LINE
  5
427
  8
TOP
 10
0.0
 20
486.0
 30
-11.0
 11
864.0
 21
486.0
 31
-11.0
210
0.0
220
0.0
230
-1.0
  0
LINE
  5
428
  8
TOP
 10
864.0
 20
486.0
 30
-11.0
 11
864.0
 21
388.0
 31
-11.0
210
0.0
220
0.0
230
-1.0
  0
LINE
  5
429
  8
TOP
 10
864.0
 20
388.0
 30
-11.0
 11
0.0
 21
388.0
 31
-11.0
210
0.0
220
0.0
230
-1.0
  0
LINE
  5
42A
  8
TOP
 10
0.0
 20
388.0
 30
-11.0
 11
0.0
 21
486.0
 31
-11.0
210
0.0
220
0.0
230
-1.0
  0
LINE
  5
42B
  8
TOP
 10
0.0
 20
486.0
 30
-6.0
 11
864.0
 21
486.0
 31
-6.0
  0
LINE
  5
42C
  8
TOP
 10
0.0
 20
388.0
 30
-6.0
 11
0.0
 21
486.0
 31
-6.0
  0
LINE
  5
42D
  8
TOP
 10
864.0
 20
388.0
 30
-6.0
 11
0.0
 21
388.0
 31
-6.0
  0
LINE
  5
42E
  8
TOP
 10
864.0
 20
486.0
 30
-6.0
 11
864.0
 21
388.0
 31
-6.0
  0
ENDBLK
  5
430
  8
0
  0
BLOCK
  8
0
  2
*U4
 70
     1
 10
0.0
 20
0.0
 30
0.0
  3
*U4
  1

  0
LINE
  5
438
  8
RIGHTPANELTOP
 10
864.0
 20
388.0
 30
0.0
 11
864.0
 21
0.0
 31
0.0
210
1.0
220
0.0
230
0.0
  0
LINE
  5
439
  8
RIGHTPANELTOP
 10
864.0
 20
0.0
 30
0.0
 11
864.0
 21
0.0
 31
-5.0
210
1.0
220
0.0
230
0.0
  0
LINE
  5
43A
  8
RIGHTPANELTOP
 10
864.0
 20
388.0
 30
-5.0
 11
864.0
 21
0.0
 31
-5.0
210
1.0
220
0.0
230
0.0
  0
LINE
  5
43B
  8
RIGHTPANELTOP
 10
864.0
 20
388.0
 30
0.0
 11
864.0
 21
388.0
 31
-5.0
210
1.0
220
0.0
230
0.0
  0
LINE
  5
43C
  8
RIGHTPANELTOP
 10
218.0
 20
388.0
 30
0.0
 11
864.0
 21
388.0
 31
0.0
210
0.0
220
1.0
230
0.0
  0
LINE
  5
43D
  8
RIGHTPANELTOP
 10
864.0
 20
388.0
 30
0.0
 11
864.0
 21
388.0
 31
-5.0
210
0.0
220
1.0
230
0.0
  0
LINE
  5
43E
  8
RIGHTPANELTOP
 10
218.0
 20
388.0
 30
-5.0
 11
864.0
 21
388.0
 31
-5.0
210
0.0
220
1.0
230
0.0
  0
LINE
  5
43F
  8
RIGHTPANELTOP
 10
218.0
 20
388.0
 30
0.0
 11
218.0
 21
388.0
 31
-5.0
210
0.0
220
1.0
230
0.0
  0
LINE
  5
440
  8
RIGHTPANELTOP
 10
218.0
 20
0.0
 30
0.0
 11
218.0
 21
388.0
 31
0.0
210
-1.0
220
0.0
230
0.0
  0
LINE
  5
441
  8
RIGHTPANELTOP
 10
218.0
 20
388.0
 30
0.0
 11
218.0
 21
388.0
 31
-5.0
210
-1.0
220
0.0
230
0.0
  0
LINE
  5
442
  8
RIGHTPANELTOP
 10
218.0
 20
0.0
 30
-5.0
 11
218.0
 21
388.0
 31
-5.0
210
-1.0
220
0.0
230
0.0
  0
LINE
  5
443
  8
RIGHTPANELTOP
 10
218.0
 20
0.0
 30
0.0
 11
218.0
 21
0.0
 31
-5.0
210
-1.0
220
0.0
230
0.0
  0
LINE
  5
444
  8
RIGHTPANELTOP
 10
864.0
 20
0.0
 30
0.0
 11
218.0
 21
0.0
 31
0.0
210
0.0
220
-1.0
230
0.0
  0
LINE
  5
445
  8
RIGHTPANELTOP
 10
218.0
 20
0.0
 30
0.0
 11
218.0
 21
0.0
 31
-5.0
210
0.0
220
-1.0
230
0.0
  0
LINE
  5
446
  8
RIGHTPANELTOP
 10
864.0
 20
0.0
 30
-5.0
 11
218.0
 21
0.0
 31
-5.0
210
0.0
220
-1.0
230
0.0
  0
LINE
  5
447
  8
RIGHTPANELTOP
 10
864.0
 20
0.0
 30
0.0
 11
864.0
 21
0.0
 31
-5.0
210
0.0
220
-1.0
230
0.0
  0
LINE
  5
448
  8
RIGHTPANELTOP
 10
864.0
 20
0.0
 30
-5.0
 11
218.0
 21
0.0
 31
-5.0
210
0.0
220
0.0
230
-1.0
  0
LINE
  5
449
  8
RIGHTPANELTOP
 10
218.0
 20
0.0
 30
-5.0
 11
218.0
 21
388.0
 31
-5.0
210
0.0
220
0.0
230
-1.0
  0
LINE
  5
44A
  8
RIGHTPANELTOP
 10
218.0
 20
388.0
 30
-5.0
 11
864.0
 21
388.0
 31
-5.0
210
0.0
220
0.0
230
-1.0
  0
LINE
  5
44B
  8
RIGHTPANELTOP
 10
864.0
 20
388.0
 30
-5.0
 11
864.0
 21
0.0
 31
-5.0
210
0.0
220
0.0
230
-1.0
  0
LINE
  5
44C
  8
RIGHTPANELTOP
 10
864.0
 20
0.0
 30
0.0
 11
218.0
 21
0.0
 31
0.0
  0
LINE
  5
44D
  8
RIGHTPANELTOP
 10
864.0
 20
388.0
 30
0.0
 11
864.0
 21
0.0
 31
0.0
  0
LINE
  5
44E
  8
RIGHTPANELTOP
 10
218.0
 20
388.0
 30
0.0
 11
864.0
 21
388.0
 31
0.0
  0
LINE
  5
44F
  8
RIGHTPANELTOP
 10
218.0
 20
0.0
 30
0.0
 11
218.0
 21
388.0
 31
0.0
  0
ENDBLK
  5
451
  8
0
  0
BLOCK
  8
0
  2
*U5
 70
     1
 10
0.0
 20
0.0
 30
0.0
  3
*U5
  1

  0
LINE
  5
459
  8
LEFTPANELTOP
 10
218.0
 20
0.0
 30
0.0
 11
218.0
 21
388.0
 31
0.0
210
1.0
220
0.0000000000000001
230
0.0
  0
LINE
  5
45A
  8
LEFTPANELTOP
 10
218.0
 20
0.0
 30
0.0
 11
218.0
 21
0.0
 31
-5.0
210
1.0
220
0.0000000000000001
230
0.0
  0
LINE
  5
45B
  8
LEFTPANELTOP
 10
218.0
 20
388.0
 30
-5.0
 11
218.0
 21
0.0
 31
-5.0
210
1.0
220
0.0000000000000001
230
0.0
  0
LINE
  5
45C
  8
LEFTPANELTOP
 10
218.0
 20
388.0
 30
0.0
 11
218.0
 21
388.0
 31
-5.0
210
1.0
220
0.0000000000000001
230
0.0
  0
LINE
  5
45D
  8
LEFTPANELTOP
 10
218.0
 20
388.0
 30
0.0
 11
0.0
 21
388.0
 31
0.0
210
0.0
220
1.0
230
0.0
  0
LINE
  5
45E
  8
LEFTPANELTOP
 10
218.0
 20
388.0
 30
0.0
 11
218.0
 21
388.0
 31
-5.0
210
0.0
220
1.0
230
0.0
  0
LINE
  5
45F
  8
LEFTPANELTOP
 10
0.0
 20
388.0
 30
-5.0
 11
218.0
 21
388.0
 31
-5.0
210
0.0
220
1.0
230
0.0
  0
LINE
  5
460
  8
LEFTPANELTOP
 10
0.0
 20
388.0
 30
0.0
 11
0.0
 21
388.0
 31
-5.0
210
0.0
220
1.0
230
0.0
  0
LINE
  5
461
  8
LEFTPANELTOP
 10
0.0
 20
388.0
 30
0.0
 11
0.0
 21
0.0
 31
0.0
210
-1.0
220
0.0
230
0.0
  0
LINE
  5
462
  8
LEFTPANELTOP
 10
0.0
 20
388.0
 30
0.0
 11
0.0
 21
388.0
 31
-5.0
210
-1.0
220
0.0
230
0.0
  0
LINE
  5
463
  8
LEFTPANELTOP
 10
0.0
 20
0.0
 30
-5.0
 11
0.0
 21
388.0
 31
-5.0
210
-1.0
220
0.0
230
0.0
  0
LINE
  5
464
  8
LEFTPANELTOP
 10
0.0
 20
0.0
 30
0.0
 11
0.0
 21
0.0
 31
-5.0
210
-1.0
220
0.0
230
0.0
  0
LINE
  5
465
  8
LEFTPANELTOP
 10
0.0
 20
0.0
 30
0.0
 11
218.0
 21
0.0
 31
0.0
210
0.0
220
-1.0
230
0.0
  0
LINE
  5
466
  8
LEFTPANELTOP
 10
0.0
 20
0.0
 30
0.0
 11
0.0
 21
0.0
 31
-5.0
210
0.0
220
-1.0
230
0.0
  0
LINE
  5
467
  8
LEFTPANELTOP
 10
218.0
 20
0.0
 30
-5.0
 11
0.0
 21
0.0
 31
-5.0
210
0.0
220
-1.0
230
0.0
  0
LINE
  5
468
  8
LEFTPANELTOP
 10
218.0
 20
0.0
 30
0.0
 11
218.0
 21
0.0
 31
-5.0
210
0.0
220
-1.0
230
0.0
  0
LINE
  5
469
  8
LEFTPANELTOP
 10
0.0
 20
0.0
 30
0.0
 11
218.0
 21
0.0
 31
0.0
  0
LINE
  5
46A
  8
LEFTPANELTOP
 10
218.0
 20
0.0
 30
0.0
 11
218.0
 21
388.0
 31
0.0
  0
LINE
  5
46B
  8
LEFTPANELTOP
 10
218.0
 20
388.0
 30
0.0
 11
0.0
 21
388.0
 31
0.0
  0
LINE
  5
46C
  8
LEFTPANELTOP
 10
0.0
 20
388.0
 30
0.0
 11
0.0
 21
0.0
 31
0.0
  0
LINE
  5
46D
  8
LEFTPANELTOP
 10
218.0
 20
0.0
 30
-5.0
 11
0.0
 21
0.0
 31
-5.0
210
0.0
220
0.0
230
-1.0
  0
LINE
  5
46E
  8
LEFTPANELTOP
 10
0.0
 20
0.0
 30
-5.0
 11
0.0
 21
388.0
 31
-5.0
210
0.0
220
0.0
230
-1.0
  0
LINE
  5
46F
  8
LEFTPANELTOP
 10
0.0
 20
388.0
 30
-5.0
 11
218.0
 21
388.0
 31
-5.0
210
0.0
220
0.0
230
-1.0
  0
LINE
  5
470
  8
LEFTPANELTOP
 10
218.0
 20
388.0
 30
-5.0
 11
218.0
 21
0.0
 31
-5.0
210
0.0
220
0.0
230
-1.0
  0
ENDBLK
  5
472
  8
0
  0
BLOCK
  8
0
  2
*U6
 70
     1
 10
0.0
 20
0.0
 30
0.0
  3
*U6
  1

  0
LINE
  5
47A
  8
WINDOW
 10
864.0
 20
0.0
 30
-5.0
 11
864.0
 21
486.0
 31
-5.0
210
1.0
220
0.0
230
0.0
  0
LINE
  5
47B
  8
WINDOW
 10
864.0
 20
0.0
 30
-5.0
 11
864.0
 21
0.0
 31
-6.0
210
1.0
220
0.0
230
0.0
  0
LINE
  5
47C
  8
WINDOW
 10
864.0
 20
486.0
 30
-6.0
 11
864.0
 21
0.0
 31
-6.0
210
1.0
220
0.0
230
0.0
  0
LINE
  5
47D
  8
WINDOW
 10
864.0
 20
486.0
 30
-5.0
 11
864.0
 21
486.0
 31
-6.0
210
1.0
220
0.0
230
0.0
  0
LINE
  5
47E
  8
WINDOW
 10
864.0
 20
486.0
 30
-5.0
 11
0.0
 21
486.0
 31
-5.0
210
0.0
220
1.0
230
0.0
  0
LINE
  5
47F
  8
WINDOW
 10
864.0
 20
486.0
 30
-5.0
 11
864.0
 21
486.0
 31
-6.0
210
0.0
220
1.0
230
0.0
  0
LINE
  5
480
  8
WINDOW
 10
0.0
 20
486.0
 30
-6.0
 11
864.0
 21
486.0
 31
-6.0
210
0.0
220
1.0
230
0.0
  0
LINE
  5
481
  8
WINDOW
 10
0.0
 20
486.0
 30
-5.0
 11
0.0
 21
486.0
 31
-6.0
210
0.0
220
1.0
230
0.0
  0
LINE
  5
482
  8
WINDOW
 10
0.0
 20
486.0
 30
-5.0
 11
0.0
 21
0.0
 31
-5.0
210
-1.0
220
0.0
230
0.0
  0
LINE
  5
483
  8
WINDOW
 10
0.0
 20
486.0
 30
-5.0
 11
0.0
 21
486.0
 31
-6.0
210
-1.0
220
0.0
230
0.0
  0
LINE
  5
484
  8
WINDOW
 10
0.0
 20
0.0
 30
-6.0
 11
0.0
 21
486.0
 31
-6.0
210
-1.0
220
0.0
230
0.0
  0
LINE
  5
485
  8
WINDOW
 10
0.0
 20
0.0
 30
-5.0
 11
0.0
 21
0.0
 31
-6.0
210
-1.0
220
0.0
230
0.0
  0
LINE
  5
486
  8
WINDOW
 10
0.0
 20
0.0
 30
-5.0
 11
864.0
 21
0.0
 31
-5.0
210
0.0
220
-1.0
230
0.0
  0
LINE
  5
487
  8
WINDOW
 10
0.0
 20
0.0
 30
-5.0
 11
0.0
 21
0.0
 31
-6.0
210
0.0
220
-1.0
230
0.0
  0
LINE
  5
488
  8
WINDOW
 10
864.0
 20
0.0
 30
-6.0
 11
0.0
 21
0.0
 31
-6.0
210
0.0
220
-1.0
230
0.0
  0
LINE
  5
489
  8
WINDOW
 10
864.0
 20
0.0
 30
-5.0
 11
864.0
 21
0.0
 31
-6.0
210
0.0
220
-1.0
230
0.0
  0
LINE
  5
48A
  8
WINDOW
 10
0.0
 20
0.0
 30
-5.0
 11
864.0
 21
0.0
 31
-5.0
  0
LINE
  5
48B
  8
WINDOW
 10
864.0
 20
0.0
 30
-5.0
 11
864.0
 21
486.0
 31
-5.0
  0
LINE
  5
48C
  8
WINDOW
 10
864.0
 20
486.0
 30
-5.0
 11
0.0
 21
486.0
 31
-5.0
  0
LINE
  5
48D
  8
WINDOW
 10
0.0
 20
486.0
 30
-5.0
 11
0.0
 21
0.0
 31
-5.0
  0
LINE
  5
48E
  8
WINDOW
 10
864.0
 20
0.0
 30
-6.0
 11
0.0
 21
0.0
 31
-6.0
210
0.0
220
0.0
230
-1.0
  0
LINE
  5
48F
  8
WINDOW
 10
0.0
 20
0.0
 30
-6.0
 11
0.0
 21
486.0
 31
-6.0
210
0.0
220
0.0
230
-1.0
  0
LINE
  5
490
  8
WINDOW
 10
0.0
 20
486.0
 30
-6.0
 11
864.0
 21
486.0
 31
-6.0
210
0.0
220
0.0
230
-1.0
  0
LINE
  5
491
  8
WINDOW
 10
864.0
 20
486.0
 30
-6.0
 11
864.0
 21
0.0
 31
-6.0
210
0.0
220
0.0
230
-1.0
  0
ENDBLK
  5
493
  8
0
  0
BLOCK
  8
0
  2
*U7
 70
     1
 10
0.0
 20
0.0
 30
0.0
  3
*U7
  1

  0
LINE
  5
49B
  8
RIGHTPANEL
 10
864.0
 20
388.0
 30
-6.0
 11
864.0
 21
0.0
 31
-6.0
210
1.0
220
0.0
230
0.0
  0
LINE
  5
49C
  8
RIGHTPANEL
 10
864.0
 20
0.0
 30
-6.0
 11
864.0
 21
0.0
 31
-11.0
210
1.0
220
0.0
230
0.0
  0
LINE
  5
49D
  8
RIGHTPANEL
 10
864.0
 20
388.0
 30
-11.0
 11
864.0
 21
0.0
 31
-11.0
210
1.0
220
0.0
230
0.0
  0
LINE
  5
49E
  8
RIGHTPANEL
 10
864.0
 20
388.0
 30
-6.0
 11
864.0
 21
388.0
 31
-11.0
210
1.0
220
0.0
230
0.0
  0
LINE
  5
49F
  8
RIGHTPANEL
 10
218.0
 20
388.0
 30
-6.0
 11
864.0
 21
388.0
 31
-6.0
210
0.0
220
1.0
230
0.0
  0
LINE
  5
4A0
  8
RIGHTPANEL
 10
864.0
 20
388.0
 30
-6.0
 11
864.0
 21
388.0
 31
-11.0
210
0.0
220
1.0
230
0.0
  0
LINE
  5
4A1
  8
RIGHTPANEL
 10
218.0
 20
388.0
 30
-11.0
 11
864.0
 21
388.0
 31
-11.0
210
0.0
220
1.0
230
0.0
  0
LINE
  5
4A2
  8
RIGHTPANEL
 10
218.0
 20
388.0
 30
-6.0
 11
218.0
 21
388.0
 31
-11.0
210
0.0
220
1.0
230
0.0
  0
LINE
  5
4A3
  8
RIGHTPANEL
 10
218.0
 20
0.0
 30
-6.0
 11
218.0
 21
388.0
 31
-6.0
210
-1.0
220
0.0
230
0.0
  0
LINE
  5
4A4
  8
RIGHTPANEL
 10
218.0
 20
388.0
 30
-6.0
 11
218.0
 21
388.0
 31
-11.0
210
-1.0
220
0.0
230
0.0
  0
LINE
  5
4A5
  8
RIGHTPANEL
 10
218.0
 20
0.0
 30
-11.0
 11
218.0
 21
388.0
 31
-11.0
210
-1.0
220
0.0
230
0.0
  0
LINE
  5
4A6
  8
RIGHTPANEL
 10
218.0
 20
0.0
 30
-6.0
 11
218.0
 21
0.0
 31
-11.0
210
-1.0
220
0.0
230
0.0
  0
LINE
  5
4A7
  8
RIGHTPANEL
 10
864.0
 20
0.0
 30
-6.0
 11
218.0
 21
0.0
 31
-6.0
210
0.0
220
-1.0
230
0.0
  0
LINE
  5
4A8
  8
RIGHTPANEL
 10
218.0
 20
0.0
 30
-6.0
 11
218.0
 21
0.0
 31
-11.0
210
0.0
220
-1.0
230
0.0
  0
LINE
  5
4A9
  8
RIGHTPANEL
 10
864.0
 20
0.0
 30
-11.0
 11
218.0
 21
0.0
 31
-11.0
210
0.0
220
-1.0
230
0.0
  0
LINE
  5
4AA
  8
RIGHTPANEL
 10
864.0
 20
0.0
 30
-6.0
 11
864.0
 21
0.0
 31
-11.0
210
0.0
220
-1.0
230
0.0
  0
LINE
  5
4AB
  8
RIGHTPANEL
 10
864.0
 20
0.0
 30
-11.0
 11
218.0
 21
0.0
 31
-11.0
210
0.0
220
0.0
230
-1.0
  0
LINE
  5
4AC
  8
RIGHTPANEL
 10
218.0
 20
0.0
 30
-11.0
 11
218.0
 21
388.0
 31
-11.0
210
0.0
220
0.0
230
-1.0
  0
LINE
  5
4AD
  8
RIGHTPANEL
 10
218.0
 20
388.0
 30
-11.0
 11
864.0
 21
388.0
 31
-11.0
210
0.0
220
0.0
230
-1.0
  0
LINE
  5
4AE
  8
RIGHTPANEL
 10
864.0
 20
388.0
 30
-11.0
 11
864.0
 21
0.0
 31
-11.0
210
0.0
220
0.0
230
-1.0
  0
LINE
  5
4AF
  8
RIGHTPANEL
 10
864.0
 20
0.0
 30
-6.0
 11
218.0
 21
0.0
 31
-6.0
  0
LINE
  5
4B0
  8
RIGHTPANEL
 10
864.0
 20
388.0
 30
-6.0
 11
864.0
 21
0.0
 31
-6.0
  0
LINE
  5
4B1
  8
RIGHTPANEL
 10
218.0
 20
388.0
 30
-6.0
 11
864.0
 21
388.0
 31
-6.0
  0
LINE
  5
4B2
  8
RIGHTPANEL
 10
218.0
 20
0.0
 30
-6.0
 11
218.0
 21
388.0
 31
-6.0
  0
ENDBLK
  5
4B4
  8
0
  0
BLOCK
  8
0
  2
*U8
 70
     1
 10
0.0
 20
0.0
 30
0.0
  3
*U8
  1

  0
LINE
  5
4BC
  8
LEFTPANEL
 10
218.0
 20
0.0
 30
-6.0
 11
218.0
 21
388.0
 31
-6.0
210
1.0
220
0.0000000000000001
230
0.0
  0
LINE
  5
4BD
  8
LEFTPANEL
 10
218.0
 20
0.0
 30
-6.0
 11
218.0
 21
0.0
 31
-11.0
210
1.0
220
0.0000000000000001
230
0.0
  0
LINE
  5
4BE
  8
LEFTPANEL
 10
218.0
 20
388.0
 30
-11.0
 11
218.0
 21
0.0
 31
-11.0
210
1.0
220
0.0000000000000001
230
0.0
  0
LINE
  5
4BF
  8
LEFTPANEL
 10
218.0
 20
388.0
 30
-6.0
 11
218.0
 21
388.0
 31
-11.0
210
1.0
220
0.0000000000000001
230
0.0
  0
LINE
  5
4C0
  8
LEFTPANEL
 10
218.0
 20
388.0
 30
-6.0
 11
0.0
 21
388.0
 31
-6.0
210
0.0
220
1.0
230
0.0
  0
LINE
  5
4C1
  8
LEFTPANEL
 10
218.0
 20
388.0
 30
-6.0
 11
218.0
 21
388.0
 31
-11.0
210
0.0
220
1.0
230
0.0
  0
LINE
  5
4C2
  8
LEFTPANEL
 10
0.0
 20
388.0
 30
-11.0
 11
218.0
 21
388.0
 31
-11.0
210
0.0
220
1.0
230
0.0
  0
LINE
  5
4C3
  8
LEFTPANEL
 10
0.0
 20
388.0
 30
-6.0
 11
0.0
 21
388.0
 31
-11.0
210
0.0
220
1.0
230
0.0
  0
LINE
  5
4C4
  8
LEFTPANEL
 10
0.0
 20
388.0
 30
-6.0
 11
0.0
 21
0.0
 31
-6.0
210
-1.0
220
0.0
230
0.0
  0
LINE
  5
4C5
  8
LEFTPANEL
 10
0.0
 20
388.0
 30
-6.0
 11
0.0
 21
388.0
 31
-11.0
210
-1.0
220
0.0
230
0.0
  0
LINE
  5
4C6
  8
LEFTPANEL
 10
0.0
 20
0.0
 30
-11.0
 11
0.0
 21
388.0
 31
-11.0
210
-1.0
220
0.0
230
0.0
  0
LINE
  5
4C7
  8
LEFTPANEL
 10
0.0
 20
0.0
 30
-6.0
 11
0.0
 21
0.0
 31
-11.0
210
-1.0
220
0.0
230
0.0
  0
LINE
  5
4C8
  8
LEFTPANEL
 10
0.0
 20
0.0
 30
-6.0
 11
218.0
 21
0.0
 31
-6.0
210
0.0
220
-1.0
230
0.0
  0
LINE
  5
4C9
  8
LEFTPANEL
 10
0.0
 20
0.0
 30
-6.0
 11
0.0
 21
0.0
 31
-11.0
210
0.0
220
-1.0
230
0.0
  0
LINE
  5
4CA
  8
LEFTPANEL
 10
218.0
 20
0.0
 30
-11.0
 11
0.0
 21
0.0
 31
-11.0
210
0.0
220
-1.0
230
0.0
  0
LINE
  5
4CB
  8
LEFTPANEL
 10
218.0
 20
0.0
 30
-6.0
 11
218.0
 21
0.0
 31
-11.0
210
0.0
220
-1.0
230
0.0
  0
LINE
  5
4CC
  8
LEFTPANEL
 10
0.0
 20
0.0
 30
-6.0
 11
218.0
 21
0.0
 31
-6.0
  0
LINE
  5
4CD
  8
LEFTPANEL
 10
218.0
 20
0.0
 30
-6.0
 11
218.0
 21
388.0
 31
-6.0
  0
LINE
  5
4CE
  8
LEFTPANEL
 10
218.0
 20
388.0
 30
-6.0
 11
0.0
 21
388.0
 31
-6.0
  0
LINE
  5
4CF
  8
LEFTPANEL
 10
0.0
 20
388.0
 30
-6.0
 11
0.0
 21
0.0
 31
-6.0
  0
LINE
  5
4D0
  8
LEFTPANEL
 10
218.0
 20
0.0
 30
-11.0
 11
0.0
 21
0.0
 31
-11.0
210
0.0
220
0.0
230
-1.0
  0
LINE
  5
4D1
  8
LEFTPANEL
 10
0.0
 20
0.0
 30
-11.0
 11
0.0
 21
388.0
 31
-11.0
210
0.0
220
0.0
230
-1.0
  0
LINE
  5
4D2
  8
LEFTPANEL
 10
0.0
 20
388.0
 30
-11.0
 11
218.0
 21
388.0
 31
-11.0
210
0.0
220
0.0
230
-1.0
  0
LINE
  5
4D3
  8
LEFTPANEL
 10
218.0
 20
388.0
 30
-11.0
 11
218.0
 21
0.0
 31
-11.0
210
0.0
220
0.0
230
-1.0
  0
ENDBLK
  5
4D5
  8
0
  0
BLOCK
  8
0
  2
*U9
 70
     1
 10
0.0
 20
0.0
 30
0.0
  3
*U9
  1

  0
LINE
  5
4E3
  8
TABHEADER
 10
864.0
 20
388.0
 30
0.0
 11
864.0
 21
446.0
 31
0.0
210
1.0
220
0.0
230
0.0
  0
LINE
  5
4E4
  8
TABHEADER
 10
864.0
 20
388.0
 30
0.0
 11
864.0
 21
388.0
 31
-5.0
210
1.0
220
0.0
230
0.0
  0
LINE
  5
4E5
  8
TABHEADER
 10
864.0
 20
446.0
 30
-5.0
 11
864.0
 21
388.0
 31
-5.0
210
1.0
220
0.0
230
0.0
  0
LINE
  5
4E6
  8
TABHEADER
 10
864.0
 20
446.0
 30
0.0
 11
864.0
 21
446.0
 31
-5.0
210
1.0
220
0.0
230
0.0
  0
LINE
  5
4E7
  8
TABHEADER
 10
864.0
 20
446.0
 30
0.0
 11
247.999999999999801
 21
446.0
 31
0.0
210
0.0
220
1.0
230
0.0
  0
LINE
  5
4E8
  8
TABHEADER
 10
864.0
 20
446.0
 30
0.0
 11
864.0
 21
446.0
 31
-5.0
210
0.0
220
1.0
230
0.0
  0
LINE
  5
4E9
  8
TABHEADER
 10
247.999999999999801
 20
446.0
 30
-5.0
 11
864.0
 21
446.0
 31
-5.0
210
0.0
220
1.0
230
0.0
  0
LINE
  5
4EA
  8
TABHEADER
 10
247.999999999999801
 20
446.0
 30
0.0
 11
247.999999999999801
 21
446.0
 31
-5.0
210
0.0
220
1.0
230
0.0
  0
LINE
  5
4EB
  8
TABHEADER
 10
247.999999999999801
 20
446.0
 30
0.0
 11
247.999999999999801
 21
475.0
 31
0.0
210
1.0
220
0.0
230
0.0
  0
LINE
  5
4EC
  8
TABHEADER
 10
247.999999999999801
 20
446.0
 30
0.0
 11
247.999999999999801
 21
446.0
 31
-5.0
210
1.0
220
0.0
230
0.0
  0
LINE
  5
4ED
  8
TABHEADER
 10
247.999999999999801
 20
475.0
 30
-5.0
 11
247.999999999999801
 21
446.0
 31
-5.0
210
1.0
220
0.0
230
0.0
  0
LINE
  5
4EE
  8
TABHEADER
 10
247.999999999999801
 20
475.0
 30
0.0
 11
247.999999999999801
 21
475.0
 31
-5.0
210
1.0
220
0.0
230
0.0
  0
ARC
  5
4EF
  8
TABHEADER
 10
244.999999999999801
 20
475.0
 30
0.0
 40
3.0
 50
0.0
 51
90.0
  0
LINE
  5
4F0
  8
TABHEADER
 10
247.999999999999801
 20
475.0
 30
0.0
 11
247.999999999999801
 21
475.0
 31
-5.0
  0
ARC
  5
4F1
  8
TABHEADER
 10
-244.999999999999801
 20
475.0
 30
5.0
 40
3.0
210
0.0
220
0.0
230
-1.0
 50
90.0
 51
180.0
  0
LINE
  5
4F2
  8
TABHEADER
 10
244.999999999999801
 20
478.0
 30
0.0
 11
244.999999999999801
 21
478.0
 31
-5.0
  0
LINE
  5
4F3
  8
TABHEADER
 10
244.999999999999801
 20
478.0
 30
0.0
 11
9.9999999999997726
 21
478.0
 31
0.0
210
0.0
220
1.0
230
0.0
  0
LINE
  5
4F4
  8
TABHEADER
 10
244.999999999999801
 20
478.0
 30
0.0
 11
244.999999999999801
 21
478.0
 31
-5.0
210
0.0
220
1.0
230
0.0
  0
LINE
  5
4F5
  8
TABHEADER
 10
9.9999999999997726
 20
478.0
 30
-5.0
 11
244.999999999999801
 21
478.0
 31
-5.0
210
0.0
220
1.0
230
0.0
  0
LINE
  5
4F6
  8
TABHEADER
 10
9.9999999999997726
 20
478.0
 30
0.0
 11
9.9999999999997726
 21
478.0
 31
-5.0
210
0.0
220
1.0
230
0.0
  0
ARC
  5
4F7
  8
TABHEADER
 10
9.9999999999997442
 20
475.0
 30
0.0
 40
3.0
 50
89.9999999999994742
 51
180.0
  0
LINE
  5
4F8
  8
TABHEADER
 10
9.9999999999997726
 20
478.0
 30
0.0
 11
9.9999999999997726
 21
478.0
 31
-5.0
  0
ARC
  5
4F9
  8
TABHEADER
 10
-9.9999999999997442
 20
475.0
 30
5.0
 40
3.0
210
0.0
220
0.0
230
-1.0
 50
0.0
 51
90.0000000000004832
  0
LINE
  5
4FA
  8
TABHEADER
 10
6.9999999999997451
 20
475.0
 30
0.0
 11
6.9999999999997451
 21
475.0
 31
-5.0
  0
LINE
  5
4FB
  8
TABHEADER
 10
6.9999999999997451
 20
475.0
 30
0.0
 11
6.9999999999997717
 21
446.0
 31
0.0
210
-1.0
220
0.0
230
0.0
  0
LINE
  5
4FC
  8
TABHEADER
 10
6.9999999999997451
 20
475.0
 30
0.0
 11
6.9999999999997451
 21
475.0
 31
-5.0
210
-1.0
220
0.0
230
0.0
  0
LINE
  5
4FD
  8
TABHEADER
 10
6.9999999999997717
 20
446.0
 30
-5.0
 11
6.9999999999997451
 21
475.0
 31
-5.0
210
-1.0
220
0.0
230
0.0
  0
LINE
  5
4FE
  8
TABHEADER
 10
6.9999999999997717
 20
446.0
 30
0.0
 11
6.9999999999997717
 21
446.0
 31
-5.0
210
-1.0
220
0.0
230
0.0
  0
LINE
  5
4FF
  8
TABHEADER
 10
6.9999999999997717
 20
446.0
 30
0.0
 11
-0.0000000000002274
 21
446.0
 31
0.0
210
0.0
220
1.0
230
0.0
  0
LINE
  5
500
  8
TABHEADER
 10
6.9999999999997717
 20
446.0
 30
0.0
 11
6.9999999999997717
 21
446.0
 31
-5.0
210
0.0
220
1.0
230
0.0
  0
LINE
  5
501
  8
TABHEADER
 10
-0.0000000000002274
 20
446.0
 30
-5.0
 11
6.9999999999997717
 21
446.0
 31
-5.0
210
0.0
220
1.0
230
0.0
  0
LINE
  5
502
  8
TABHEADER
 10
-0.0000000000002274
 20
446.0
 30
0.0
 11
-0.0000000000002274
 21
446.0
 31
-5.0
210
0.0
220
1.0
230
0.0
  0
LINE
  5
503
  8
TABHEADER
 10
-0.0000000000002274
 20
446.0
 30
0.0
 11
0.0
 21
388.0
 31
0.0
210
-1.0
220
-0.0000000000000025
230
0.0
  0
LINE
  5
504
  8
TABHEADER
 10
-0.0000000000002274
 20
446.0
 30
0.0
 11
-0.0000000000002274
 21
446.0
 31
-5.0
210
-1.0
220
-0.0000000000000025
230
0.0
  0
LINE
  5
505
  8
TABHEADER
 10
0.0
 20
388.0
 30
-5.0
 11
-0.0000000000002274
 21
446.0
 31
-5.0
210
-1.0
220
-0.0000000000000025
230
0.0
  0
LINE
  5
506
  8
TABHEADER
 10
0.0
 20
388.0
 30
0.0
 11
0.0
 21
388.0
 31
-5.0
210
-1.0
220
-0.0000000000000025
230
0.0
  0
LINE
  5
507
  8
TABHEADER
 10
0.0
 20
388.0
 30
0.0
 11
864.0
 21
388.0
 31
0.0
210
0.0
220
-1.0
230
0.0
  0
LINE
  5
508
  8
TABHEADER
 10
0.0
 20
388.0
 30
0.0
 11
0.0
 21
388.0
 31
-5.0
210
0.0
220
-1.0
230
0.0
  0
LINE
  5
509
  8
TABHEADER
 10
864.0
 20
388.0
 30
-5.0
 11
0.0
 21
388.0
 31
-5.0
210
0.0
220
-1.0
230
0.0
  0
LINE
  5
50A
  8
TABHEADER
 10
864.0
 20
388.0
 30
0.0
 11
864.0
 21
388.0
 31
-5.0
210
0.0
220
-1.0
230
0.0
  0
LINE
  5
50B
  8
TABHEADER
 10
0.0
 20
388.0
 30
0.0
 11
864.0
 21
388.0
 31
0.0
  0
LINE
  5
50C
  8
TABHEADER
 10
864.0
 20
388.0
 30
0.0
 11
864.0
 21
446.0
 31
0.0
  0
LINE
  5
50D
  8
TABHEADER
 10
864.0
 20
446.0
 30
0.0
 11
247.999999999999801
 21
446.0
 31
0.0
  0
LINE
  5
50E
  8
TABHEADER
 10
247.999999999999801
 20
446.0
 30
0.0
 11
247.999999999999801
 21
475.0
 31
0.0
  0
ARC
  5
50F
  8
TABHEADER
 10
244.999999999999801
 20
475.0
 30
0.0
 40
3.0
 50
0.0
 51
90.0
  0
LINE
  5
510
  8
TABHEADER
 10
244.999999999999801
 20
478.0
 30
0.0
 11
9.9999999999997726
 21
478.0
 31
0.0
  0
ARC
  5
511
  8
TABHEADER
 10
9.9999999999997442
 20
475.0
 30
0.0
 40
3.0
 50
89.9999999999994742
 51
180.0
  0
LINE
  5
512
  8
TABHEADER
 10
6.9999999999997451
 20
475.0
 30
0.0
 11
6.9999999999997717
 21
446.0
 31
0.0
  0
LINE
  5
513
  8
TABHEADER
 10
6.9999999999997717
 20
446.0
 30
0.0
 11
-0.0000000000002274
 21
446.0
 31
0.0
  0
LINE
  5
514
  8
TABHEADER
 10
-0.0000000000002274
 20
446.0
 30
0.0
 11
0.0
 21
388.0
 31
0.0
  0
LINE
  5
515
  8
TABHEADER
 10
864.0
 20
388.0
 30
-5.0
 11
0.0
 21
388.0
 31
-5.0
210
0.0
220
0.0
230
-1.0
  0
LINE
  5
516
  8
TABHEADER
 10
0.0
 20
388.0
 30
-5.0
 11
-0.0000000000002274
 21
446.0
 31
-5.0
210
0.0
220
0.0
230
-1.0
  0
LINE
  5
517
  8
TABHEADER
 10
-0.0000000000002274
 20
446.0
 30
-5.0
 11
6.9999999999997717
 21
446.0
 31
-5.0
210
0.0
220
0.0
230
-1.0
  0
LINE
  5
518
  8
TABHEADER
 10
6.9999999999997717
 20
446.0
 30
-5.0
 11
6.9999999999997451
 21
475.0
 31
-5.0
210
0.0
220
0.0
230
-1.0
  0
ARC
  5
519
  8
TABHEADER
 10
-9.9999999999997442
 20
475.0
 30
5.0
 40
3.0
210
0.0
220
0.0
230
-1.0
 50
0.0
 51
90.0000000000004832
  0
LINE
  5
51A
  8
TABHEADER
 10
9.9999999999997726
 20
478.0
 30
-5.0
 11
244.999999999999801
 21
478.0
 31
-5.0
210
0.0
220
0.0
230
-1.0
  0
ARC
  5
51B
  8
TABHEADER
 10
-244.999999999999801
 20
475.0
 30
5.0
 40
3.0
210
0.0
220
0.0
230
-1.0
 50
90.0
 51
180.0
  0
LINE
  5
51C
  8
TABHEADER
 10
247.999999999999801
 20
475.0
 30
-5.0
 11
247.999999999999801
 21
446.0
 31
-5.0
210
0.0
220
0.0
230
-1.0
  0
LINE
  5
51D
  8
TABHEADER
 10
247.999999999999801
 20
446.0
 30
-5.0
 11
864.0
 21
446.0
 31
-5.0
210
0.0
220
0.0
230
-1.0
  0
LINE
  5
51E
  8
TABHEADER
 10
864.0
 20
446.0
 30
-5.0
 11
864.0
 21
388.0
 31
-5.0
210
0.0
220
0.0
230
-1.0
  0
ENDBLK
  5
520
  8
0
  0
ENDSEC
  0
SECTION
  2
ENTITIES
  0
POLYLINE
  5
22D
  8
0
 66
     1
 10
0.0
 20
0.0
 30
0.0
 70
     1
  0
VERTEX
  5
406
  8
0
 10
0.0
 20
0.0
 30
0.0
  0
VERTEX
  5
407
  8
0
 10
864.0
 20
0.0
 30
0.0
  0
VERTEX
  5
408
  8
0
 10
864.0
 20
486.0
 30
0.0
  0
VERTEX
  5
409
  8
0
 10
0.0
 20
486.0
 30
0.0
  0
SEQEND
  5
40A
  8
0
  0
POLYLINE
  5
233
  8
0
 66
     1
 10
0.0
 20
0.0
 30
0.0
  0
VERTEX
  5
40B
  8
0
 10
-0.0000000000002345
 20
388.0
 30
0.0
  0
VERTEX
  5
40C
  8
0
 10
864.0
 20
388.0
 30
0.0
  0
SEQEND
  5
40D
  8
0
  0
INSERT
  5
2B9
  8
0
  2
*U3
 10
0.0
 20
0.0
 30
0.0
  0
INSERT
  5
2BF
  8
0
  2
*U4
 10
0.0
 20
0.0
 30
0.0
  0
INSERT
  5
2C3
  8
0
  2
*U5
 10
0.0
 20
0.0
 30
0.0
  0
INSERT
  5
399
  8
0
  2
*U6
 10
0.0
 20
0.0
 30
0.0
  0
INSERT
  5
3A3
  8
0
  2
*U7
 10
0.0
 20
0.0
 30
0.0
  0
INSERT
  5
3A7
  8
0
  2
*U8
 10
0.0
 20
0.0
 30
0.0
  0
INSERT
  5
3AE
  8
0
  2
*U9
 10
0.0
 20
0.0
 30
0.0
  0
ENDSEC
  0
EOF
