<?xml version="1.0" encoding="utf-8"?>
<!-- Generator: Adobe Illustrator 12.0.1, SVG Export Plug-In . SVG Version: 6.00 Build 51448)  -->
<!DOCTYPE svg PUBLIC "-//W3C//DTD SVG 1.1//EN" "http://www.w3.org/Graphics/SVG/1.1/DTD/svg11.dtd" [
	<!ENTITY ns_svg "http://www.w3.org/2000/svg">
	<!ENTITY ns_xlink "http://www.w3.org/1999/xlink">
]>
<svg  version="1.1" id="レイヤー_1" xmlns="&ns_svg;" xmlns:xlink="&ns_xlink;" width="190.83" height="190.831"
	 viewBox="0 0 190.83 190.831" overflow="visible" enable-background="new 0 0 190.83 190.831" xml:space="preserve">
<rect x="0.36" y="0.36" fill="#FFFFFF" width="190.11" height="190.11"/>
<g>
	<g>
		<path fill="#115D31" d="M0.36,0.36v190.11h190.11V0.36H0.36z M134.13,38.37h28.5v19.021h-28.5V38.37z M134.13,66.9h28.5v9.51
			h-28.5V66.9z M134.13,85.92h28.5v57.03h-28.5V85.92z M81.15,28.891h28.53V47.88H81.15V28.891z M81.15,57.391h28.53v9.51H81.15
			V57.391z M81.15,76.41h28.53v66.54H81.15V76.41z M45.81,44.37l28.08,4.95l-3.3,18.72l-28.08-4.949L45.81,44.37z M40.86,72.45
			l28.08,4.95l-1.65,9.39l-28.08-4.979L40.86,72.45z M37.56,91.17l28.08,4.98l-8.25,46.8L29.31,138L37.56,91.17z M171.45,171.45
			H19.38v-18.99h152.07V171.45z"/>
	</g>
</g>
</svg>
