<?xml version="1.0" encoding="UTF-8" standalone="no"?>
<svg
   xmlns:dc="http://purl.org/dc/elements/1.1/"
   xmlns:cc="http://creativecommons.org/ns#"
   xmlns:rdf="http://www.w3.org/1999/02/22-rdf-syntax-ns#"
   xmlns:svg="http://www.w3.org/2000/svg"
   xmlns="http://www.w3.org/2000/svg"
   xmlns:sodipodi="http://sodipodi.sourceforge.net/DTD/sodipodi-0.dtd"
   xmlns:inkscape="http://www.inkscape.org/namespaces/inkscape"
   width="1920"
   height="1080"
   viewBox="0 0 507.99999 285.75001"
   version="1.1"
   id="svg8"
   inkscape:version="1.0 (4035a4fb49, 2020-05-01)"
   sodipodi:docname="kurema.svg">
  <defs
     id="defs2" />
  <sodipodi:namedview
     id="base"
     pagecolor="#000000"
     bordercolor="#666666"
     borderopacity="1.0"
     inkscape:pageopacity="0"
     inkscape:pageshadow="2"
     inkscape:zoom="0.4824644"
     inkscape:cx="703.64211"
     inkscape:cy="814.63945"
     inkscape:document-units="px"
     inkscape:current-layer="layer1"
     inkscape:document-rotation="0"
     showgrid="false"
     units="px"
     inkscape:window-width="1920"
     inkscape:window-height="1017"
     inkscape:window-x="1192"
     inkscape:window-y="113"
     inkscape:window-maximized="1" />
  <metadata
     id="metadata5">
    <rdf:RDF>
      <cc:Work
         rdf:about="">
        <dc:format>image/svg+xml</dc:format>
        <dc:type
           rdf:resource="http://purl.org/dc/dcmitype/StillImage" />
        <dc:title></dc:title>
      </cc:Work>
    </rdf:RDF>
  </metadata>
  <g
     inkscape:label="Layer 1"
     inkscape:groupmode="layer"
     id="layer1">
    <g
       id="g853"
       transform="translate(4.1370762,29.743963)"
       style="fill:#ffffff">
      <g
         aria-label="developed by"
         id="text843"
         style="font-size:21.1667px;line-height:125%;font-family:sans-serif;letter-spacing:0px;word-spacing:0px;fill:#ffffff;fill-opacity:1;stroke:none;stroke-width:0.264583px;stroke-linecap:butt;stroke-linejoin:miter;stroke-opacity:1">
        <path
           d="m 187.49971,95.474202 v -6.263193 h 1.90169 v 16.081731 h -1.90169 v -1.73633 q -0.59945,1.03353 -1.51929,1.53996 -0.90951,0.49609 -2.19109,0.49609 -2.09806,0 -3.42098,-1.67432 -1.31258,-1.67431 -1.31258,-4.402834 0,-2.72852 1.31258,-4.402839 1.32292,-1.67432 3.42098,-1.67432 1.28158,0 2.19109,0.50643 0.91984,0.496095 1.51929,1.529625 z m -6.48024,4.041104 q 0,2.098064 0.85783,3.296964 0.86817,1.18856 2.37712,1.18856 1.50896,0 2.37712,-1.18856 0.86817,-1.1989 0.86817,-3.296964 0,-2.098067 -0.86817,-3.286627 -0.86816,-1.198895 -2.37712,-1.198895 -1.50895,0 -2.37712,1.198895 -0.85783,1.18856 -0.85783,3.286627 z"
           style="text-align:center;text-anchor:middle;fill:#ffffff;fill-opacity:1;stroke:none;stroke-width:0.264583px"
           id="path855" />
        <path
           d="m 203.2197,99.029546 v 0.930178 h -8.74366 q 0.12402,1.963706 1.17822,2.997236 1.06454,1.0232 2.9559,1.0232 1.09554,0 2.11874,-0.26872 1.03353,-0.26872 2.04639,-0.80616 v 1.79835 q -1.0232,0.43408 -2.09807,0.66146 -1.07487,0.22737 -2.18075,0.22737 -2.76986,0 -4.3925,-1.6123 -1.61231,-1.61231 -1.61231,-4.361501 0,-2.842209 1.52962,-4.506192 1.53996,-1.67432 4.14446,-1.67432 2.33578,0 3.6897,1.508955 1.36426,1.498619 1.36426,4.082444 z m -1.90169,-0.558106 q -0.0207,-1.560631 -0.8785,-2.490808 -0.8475,-0.930177 -2.2531,-0.930177 -1.59164,0 -2.55282,0.899171 -0.95085,0.899171 -1.09554,2.532149 z"
           style="text-align:center;text-anchor:middle;fill:#ffffff;fill-opacity:1;stroke:none;stroke-width:0.264583px"
           id="path857" />
        <path
           d="m 204.97671,93.717201 h 2.01538 l 3.61736,9.715189 3.61735,-9.715189 h 2.01539 l -4.34083,11.575539 h -2.58383 z"
           style="text-align:center;text-anchor:middle;fill:#ffffff;fill-opacity:1;stroke:none;stroke-width:0.264583px"
           id="path859" />
        <path
           d="m 228.76857,99.029546 v 0.930178 h -8.74366 q 0.12402,1.963706 1.17822,2.997236 1.06454,1.0232 2.9559,1.0232 1.09554,0 2.11874,-0.26872 1.03353,-0.26872 2.04639,-0.80616 v 1.79835 q -1.0232,0.43408 -2.09807,0.66146 -1.07487,0.22737 -2.18075,0.22737 -2.76986,0 -4.3925,-1.6123 -1.61231,-1.61231 -1.61231,-4.361501 0,-2.842209 1.52962,-4.506192 1.53996,-1.67432 4.14446,-1.67432 2.33578,0 3.6897,1.508955 1.36426,1.498619 1.36426,4.082444 z m -1.90169,-0.558106 q -0.0207,-1.560631 -0.8785,-2.490808 -0.8475,-0.930177 -2.2531,-0.930177 -1.59164,0 -2.55282,0.899171 -0.95085,0.899171 -1.09554,2.532149 z"
           style="text-align:center;text-anchor:middle;fill:#ffffff;fill-opacity:1;stroke:none;stroke-width:0.264583px"
           id="path861" />
        <path
           d="m 231.88983,89.211009 h 1.9017 v 16.081731 h -1.9017 z"
           style="text-align:center;text-anchor:middle;fill:#ffffff;fill-opacity:1;stroke:none;stroke-width:0.264583px"
           id="path863" />
        <path
           d="m 242.24581,95.050455 q -1.52963,0 -2.41846,1.198895 -0.88884,1.18856 -0.88884,3.265956 0,2.077394 0.8785,3.276294 0.88884,1.18856 2.4288,1.18856 1.51929,0 2.40812,-1.1989 0.88884,-1.19889 0.88884,-3.265954 0,-2.056726 -0.88884,-3.255621 -0.88883,-1.20923 -2.40812,-1.20923 z m 0,-1.612308 q 2.48047,0 3.89641,1.612308 1.41593,1.612307 1.41593,4.464851 0,2.842204 -1.41593,4.464854 -1.41594,1.6123 -3.89641,1.6123 -2.49081,0 -3.90675,-1.6123 -1.4056,-1.62265 -1.4056,-4.464854 0,-2.852544 1.4056,-4.464851 1.41594,-1.612308 3.90675,-1.612308 z"
           style="text-align:center;text-anchor:middle;fill:#ffffff;fill-opacity:1;stroke:none;stroke-width:0.264583px"
           id="path865" />
        <path
           d="m 252.53977,103.55641 v 6.13917 h -1.91203 V 93.717201 h 1.91203 v 1.757001 q 0.59945,-1.03353 1.50896,-1.529625 0.91984,-0.50643 2.19108,-0.50643 2.1084,0 3.42098,1.67432 1.32292,1.674319 1.32292,4.402839 0,2.728524 -1.32292,4.402834 -1.31258,1.67432 -3.42098,1.67432 -1.27124,0 -2.19108,-0.49609 -0.90951,-0.50643 -1.50896,-1.53996 z m 6.4699,-4.041104 q 0,-2.098067 -0.86817,-3.286627 -0.85783,-1.198895 -2.36678,-1.198895 -1.50895,0 -2.37712,1.198895 -0.85783,1.18856 -0.85783,3.286627 0,2.098064 0.85783,3.296964 0.86817,1.18856 2.37712,1.18856 1.50895,0 2.36678,-1.18856 0.86817,-1.1989 0.86817,-3.296964 z"
           style="text-align:center;text-anchor:middle;fill:#ffffff;fill-opacity:1;stroke:none;stroke-width:0.264583px"
           id="path867" />
        <path
           d="m 274.0372,99.029546 v 0.930178 h -8.74367 q 0.12402,1.963706 1.17823,2.997236 1.06453,1.0232 2.95589,1.0232 1.09554,0 2.11874,-0.26872 1.03353,-0.26872 2.04639,-0.80616 v 1.79835 q -1.0232,0.43408 -2.09807,0.66146 -1.07487,0.22737 -2.18075,0.22737 -2.76986,0 -4.3925,-1.6123 -1.61231,-1.61231 -1.61231,-4.361501 0,-2.842209 1.52963,-4.506192 1.53996,-1.67432 4.14445,-1.67432 2.33578,0 3.68971,1.508955 1.36426,1.498619 1.36426,4.082444 z m -1.9017,-0.558106 q -0.0207,-1.560631 -0.8785,-2.490808 -0.84749,-0.930177 -2.2531,-0.930177 -1.59163,0 -2.55282,0.899171 -0.95084,0.899171 -1.09554,2.532149 z"
           style="text-align:center;text-anchor:middle;fill:#ffffff;fill-opacity:1;stroke:none;stroke-width:0.264583px"
           id="path869" />
        <path
           d="m 284.77558,95.474202 v -6.263193 h 1.90169 v 16.081731 h -1.90169 v -1.73633 q -0.59945,1.03353 -1.51929,1.53996 -0.90951,0.49609 -2.19108,0.49609 -2.09807,0 -3.42099,-1.67432 -1.31258,-1.67431 -1.31258,-4.402834 0,-2.72852 1.31258,-4.402839 1.32292,-1.67432 3.42099,-1.67432 1.28157,0 2.19108,0.50643 0.91984,0.496095 1.51929,1.529625 z m -6.48024,4.041104 q 0,2.098064 0.85783,3.296964 0.86817,1.18856 2.37712,1.18856 1.50896,0 2.37712,-1.18856 0.86817,-1.1989 0.86817,-3.296964 0,-2.098067 -0.86817,-3.286627 -0.86816,-1.198895 -2.37712,-1.198895 -1.50895,0 -2.37712,1.198895 -0.85783,1.18856 -0.85783,3.286627 z"
           style="text-align:center;text-anchor:middle;fill:#ffffff;fill-opacity:1;stroke:none;stroke-width:0.264583px"
           id="path871" />
        <path
           d="m 305.64256,99.515306 q 0,-2.098067 -0.86817,-3.286627 -0.85783,-1.198895 -2.36678,-1.198895 -1.50895,0 -2.37712,1.198895 -0.85783,1.18856 -0.85783,3.286627 0,2.098064 0.85783,3.296964 0.86817,1.18856 2.37712,1.18856 1.50895,0 2.36678,-1.18856 0.86817,-1.1989 0.86817,-3.296964 z m -6.4699,-4.041104 q 0.59945,-1.03353 1.50895,-1.529625 0.91985,-0.50643 2.19109,-0.50643 2.1084,0 3.42098,1.67432 1.32292,1.674319 1.32292,4.402839 0,2.728524 -1.32292,4.402834 -1.31258,1.67432 -3.42098,1.67432 -1.27124,0 -2.19109,-0.49609 -0.9095,-0.50643 -1.50895,-1.53996 v 1.73633 h -1.91203 V 89.211009 h 1.91203 z"
           style="text-align:center;text-anchor:middle;fill:#ffffff;fill-opacity:1;stroke:none;stroke-width:0.264583px"
           id="path873" />
        <path
           d="m 315.58512,106.36761 q -0.80616,2.06706 -1.57097,2.69752 -0.76481,0.63045 -2.04639,0.63045 h -1.51929 v -1.59164 h 1.11621 q 0.78549,0 1.21957,-0.37207 0.43408,-0.37207 0.96118,-1.757 l 0.34107,-0.86817 -4.68189,-11.389499 h 2.01538 l 3.61736,9.053729 3.61735,-9.053729 h 2.01539 z"
           style="text-align:center;text-anchor:middle;fill:#ffffff;fill-opacity:1;stroke:none;stroke-width:0.264583px"
           id="path875" />
      </g>
      <g
         aria-label="kurema"
         id="text847"
         style="font-size:35.2778px;line-height:125%;font-family:sans-serif;letter-spacing:0px;word-spacing:0px;fill:#ffffff;fill-opacity:1;stroke:none;stroke-width:0.264583px;stroke-linecap:butt;stroke-linejoin:miter;stroke-opacity:1">
        <path
           d="m 186.44729,109.74867 h 3.18671 v 15.83022 l 9.45679,-8.31991 h 4.04799 l -10.23194,9.02616 10.66258,10.26639 h -4.13412 l -9.8013,-9.42234 v 9.42234 h -3.18671 z"
           style="font-size:35.2778px;text-align:center;text-anchor:middle;fill:#ffffff;fill-opacity:1;stroke:none;stroke-width:0.264583px"
           id="path878" />
        <path
           d="m 205.60203,128.93786 v -11.67888 h 3.16949 v 11.5583 q 0,2.73886 1.06798,4.1169 1.06798,1.36081 3.20394,1.36081 2.5666,0 4.04799,-1.63642 1.49862,-1.63642 1.49862,-4.4614 v -10.93819 h 3.16949 v 19.29255 h -3.16949 v -2.96279 q -1.15411,1.757 -2.68718,2.61828 -1.51584,0.84405 -3.53122,0.84405 -3.32452,0 -5.04707,-2.06706 -1.72255,-2.06706 -1.72255,-6.04615 z m 7.9754,-12.14397 z"
           style="font-size:35.2778px;text-align:center;text-anchor:middle;fill:#ffffff;fill-opacity:1;stroke:none;stroke-width:0.264583px"
           id="path880" />
        <path
           d="m 239.50179,120.22177 q -0.53399,-0.31006 -1.17133,-0.44787 -0.62012,-0.15503 -1.37804,-0.15503 -2.68718,0 -4.13412,1.757 -1.42971,1.73978 -1.42971,5.01262 v 10.16304 h -3.18672 v -19.29255 h 3.18672 v 2.99724 q 0.99907,-1.757 2.60105,-2.60105 1.60197,-0.86128 3.89296,-0.86128 0.32728,0 0.72347,0.0517 0.39618,0.0345 0.8785,0.12058 z"
           style="font-size:35.2778px;text-align:center;text-anchor:middle;fill:#ffffff;fill-opacity:1;stroke:none;stroke-width:0.264583px"
           id="path882" />
        <path
           d="m 258.60486,126.11288 v 1.5503 H 244.0321 q 0.2067,3.27284 1.9637,4.99539 1.77423,1.70532 4.92649,1.70532 1.8259,0 3.53123,-0.44786 1.72255,-0.44786 3.41064,-1.34359 v 2.99724 q -1.70532,0.72347 -3.49677,1.10243 -1.79145,0.37896 -3.63458,0.37896 -4.61643,0 -7.32083,-2.68718 -2.68718,-2.68717 -2.68718,-7.26915 0,-4.73701 2.54937,-7.51032 2.5666,-2.79053 6.90743,-2.79053 3.89296,0 6.14949,2.51492 2.27377,2.4977 2.27377,6.80407 z m -3.16949,-0.93017 q -0.0344,-2.60105 -1.46417,-4.15135 -1.41249,-1.55029 -3.75515,-1.55029 -2.65273,0 -4.2547,1.49862 -1.58474,1.49861 -1.8259,4.22024 z"
           style="font-size:35.2778px;text-align:center;text-anchor:middle;fill:#ffffff;fill-opacity:1;stroke:none;stroke-width:0.264583px"
           id="path884" />
        <path
           d="m 278.82758,120.96246 q 1.18856,-2.13596 2.84221,-3.15226 1.65364,-1.01631 3.89296,-1.01631 3.01446,0 4.65088,2.11874 1.63642,2.10151 1.63642,5.99447 v 11.64443 h -3.18672 v -11.54108 q 0,-2.7733 -0.98185,-4.11689 -0.98185,-1.34359 -2.99723,-1.34359 -2.46325,0 -3.89296,1.63642 -1.42972,1.63642 -1.42972,4.4614 v 10.90374 h -3.18671 v -11.54108 q 0,-2.79053 -0.98186,-4.11689 -0.98185,-1.34359 -3.03168,-1.34359 -2.4288,0 -3.85851,1.65365 -1.42972,1.63642 -1.42972,4.44417 v 10.90374 h -3.18671 v -19.29255 h 3.18671 v 2.99724 q 1.08521,-1.77423 2.60105,-2.61828 1.51584,-0.84405 3.60013,-0.84405 2.10151,0 3.56567,1.06798 1.4814,1.06798 2.18764,3.10059 z"
           style="font-size:35.2778px;text-align:center;text-anchor:middle;fill:#ffffff;fill-opacity:1;stroke:none;stroke-width:0.264583px"
           id="path886" />
        <path
           d="m 306.95681,126.85358 q -3.84129,0 -5.32268,0.8785 -1.48139,0.8785 -1.48139,2.99723 0,1.6881 1.10243,2.68718 1.11966,0.98185 3.03169,0.98185 2.6355,0 4.22024,-1.86035 1.60197,-1.87758 1.60197,-4.97817 v -0.70624 z m 6.32175,-1.30914 v 11.00709 h -3.16949 v -2.92833 q -1.0852,1.757 -2.7044,2.60104 -1.6192,0.82683 -3.96186,0.82683 -2.96279,0 -4.71979,-1.65365 -1.73977,-1.67087 -1.73977,-4.4614 0,-3.25562 2.17041,-4.90926 2.18764,-1.65365 6.51124,-1.65365 h 4.44417 v -0.31006 q 0,-2.18764 -1.44694,-3.3762 -1.42971,-1.20578 -4.03076,-1.20578 -1.65365,0 -3.22117,0.39619 -1.56752,0.39618 -3.01446,1.18855 v -2.92833 q 1.73977,-0.67179 3.3762,-0.99908 1.63642,-0.34451 3.18671,-0.34451 4.1858,0 6.25285,2.17041 2.06706,2.17042 2.06706,6.58014 z"
           style="font-size:35.2778px;text-align:center;text-anchor:middle;fill:#ffffff;fill-opacity:1;stroke:none;stroke-width:0.264583px"
           id="path888" />
      </g>
    </g>
  </g>
</svg>
